<svg width="101" height="123" viewBox="0 0 101 123" fill="none" xmlns="http://www.w3.org/2000/svg">
<path fill-rule="evenodd" clip-rule="evenodd" d="M17.3179 0L20.7834 46.3366H75.6372L76.862 0H17.3179Z" fill="#2EB7FF"/>
<path fill-rule="evenodd" clip-rule="evenodd" d="M2.52774 29.2055C4.67669 30.0631 6.82652 30.9206 8.97548 31.7789C9.60737 32.0305 10.4277 31.504 10.5712 30.873C10.7415 30.1244 10.3421 29.5479 9.66529 29.2782C7.51633 28.4206 5.36651 27.5623 3.21668 26.7048C2.58479 26.4524 1.76531 26.9796 1.62182 27.6107C1.45153 28.3593 1.85089 28.9358 2.52774 29.2055Z" fill="#2EB7FF"/>
<path fill-rule="evenodd" clip-rule="evenodd" d="M1.2976 40.7007C3.42408 40.9021 5.55143 41.1044 7.67878 41.3058C8.35562 41.3698 9.00481 40.6635 8.97542 40.0092C8.94084 39.2519 8.40403 38.7808 7.67878 38.7125C5.55143 38.5111 3.42408 38.3088 1.2976 38.1074C0.619891 38.0435 -0.0284278 38.7497 0.000962653 39.4041C0.0346752 40.1613 0.572347 40.6324 1.2976 40.7007Z" fill="#2EB7FF"/>
<path fill-rule="evenodd" clip-rule="evenodd" d="M6.01949 53.9038C7.55557 52.863 9.09166 51.8214 10.6277 50.7797C10.8438 50.6328 11.0608 50.4858 11.2778 50.3389C11.8379 49.9585 12.1396 49.1806 11.7428 48.5642C11.3832 48.0067 10.569 47.692 9.96818 48.0992C8.43296 49.1408 6.89688 50.1824 5.3608 51.2241C5.14383 51.371 4.92686 51.518 4.71075 51.6649C4.14974 52.0453 3.84806 52.8232 4.24483 53.4387C4.60529 53.9963 5.41872 54.3118 6.01949 53.9038Z" fill="#2EB7FF"/>
<path fill-rule="evenodd" clip-rule="evenodd" d="M97.5588 29.3724C94.4754 30.4668 91.3902 31.5603 88.3068 32.6538C87.6464 32.888 87.2056 33.5389 87.4009 34.2495C87.5764 34.8883 88.3328 35.3897 88.9966 35.1545C92.08 34.0611 95.1634 32.9676 98.2486 31.8732C98.9081 31.6398 99.349 30.988 99.1545 30.2783C98.979 29.6395 98.2226 29.1373 97.5588 29.3724Z" fill="#2EB7FF"/>
<mask id="mask0_17_2431" style="mask-type:alpha" maskUnits="userSpaceOnUse" x="89" y="43" width="12" height="4">
<path fill-rule="evenodd" clip-rule="evenodd" d="M89.4202 43.0446H100.386V46.7746H89.4202V43.0446Z" fill="white"/>
</mask>
<g mask="url(#mask0_17_2431)">
<path fill-rule="evenodd" clip-rule="evenodd" d="M99.0888 44.1739C96.2984 43.7996 93.5089 43.4262 90.7177 43.0519C90.0434 42.962 89.3934 43.7132 89.4211 44.3486C89.4565 45.1283 89.9942 45.5484 90.7177 45.6452C93.5089 46.0195 96.2984 46.3929 99.0888 46.7672C99.7639 46.8571 100.414 46.1059 100.385 45.4706C100.351 44.6909 99.8123 44.2708 99.0888 44.1739Z" fill="#2EB7FF"/>
</g>
<path fill-rule="evenodd" clip-rule="evenodd" d="M94.5793 57.4256L87.4555 54.2575C86.8375 53.9826 86.0327 54.0578 85.6809 54.7226C85.3827 55.287 85.4847 56.2024 86.1459 56.4972C88.5205 57.5527 90.8951 58.6081 93.2705 59.6645C93.8886 59.9393 94.6925 59.865 95.0443 59.1994C95.3426 58.6349 95.2414 57.7195 94.5793 57.4256Z" fill="#2EB7FF"/>
<path fill-rule="evenodd" clip-rule="evenodd" d="M82.7454 69.6441C81.7392 67.6248 80.7339 65.6047 79.7286 63.5854L79.3007 62.727C78.9973 62.1185 78.087 61.8998 77.526 62.262C76.9036 62.6631 76.7368 63.3848 77.0609 64.0358C78.0671 66.0559 79.0725 68.0752 80.0786 70.0945C80.2213 70.3806 80.363 70.6676 80.5057 70.9537C80.8091 71.5623 81.7193 71.7801 82.2803 71.4188C82.9027 71.0168 83.0696 70.295 82.7454 69.6441Z" fill="#2EB7FF"/>
<path fill-rule="evenodd" clip-rule="evenodd" d="M43.3116 66.4919C43.3116 66.4919 42.0003 66.4867 41.6433 68.0928C41.2863 69.6981 43.1776 70.0326 43.1776 70.0326C43.1776 70.0326 43.29 75.9124 46.7641 76.3308C49.8069 76.6964 52.172 75.2753 52.2109 69.6721C52.2109 69.6721 53.5092 69.22 53.5092 67.9122C53.5092 66.6034 51.968 66.2819 51.968 66.2819C50.9989 60.5386 47.2283 60.6916 46.2092 61.1325C45.3655 61.4964 43.3116 62.3003 43.3116 66.4919Z" fill="#304156"/>
<path fill-rule="evenodd" clip-rule="evenodd" d="M72.6238 103.858C71.5398 103.84 67.8773 104.812 67.7416 102.299C67.5782 99.2705 69.9363 83.6979 69.8387 71.0989C69.7963 65.5865 69.0425 55.1045 68.1755 51.3149C68.1755 51.3149 70.1611 44.6346 64.7282 44.8567C63.7618 44.8965 60.8426 45.0314 60.3974 45.5751C60.3974 45.5751 59.2598 41.9134 58.1145 42.5496C56.9691 43.1858 57.2137 45.1723 57.8508 47.6531C58.487 50.1349 60.4588 51.9156 60.4588 51.9156C60.4588 51.9156 60.0983 59.9219 59.3221 66.3956C58.9123 69.8127 58.4317 75.5645 54.2591 78.0394C50.8014 80.0907 47.6454 81.0173 40.5062 78.0774C37.8264 76.9744 35.9169 72.036 35.5513 69.0762C34.9963 64.5751 35.2444 51.9156 35.2444 51.9156C35.2444 51.9156 37.2162 50.1349 37.8524 47.6531C38.4886 45.1723 39.3158 43.2636 38.1705 42.6274C37.0251 41.9912 34.8952 45.4653 34.8952 45.4653C34.45 44.9216 31.5023 44.8585 31.5023 44.8585C26.3771 43.899 27.5043 50.4643 27.5043 50.4643C25.0528 58.0755 25.1004 66.8079 25.2568 71.5683C25.5317 79.9843 26.6589 94.9069 26.7981 98.8297C26.8336 99.8393 26.62 102.524 25.4487 102.593C21.4612 102.828 17.5885 101.552 16.113 108.659C15.1638 113.232 16.7129 116.062 18.5636 117.307C23.9896 120.956 36.012 122.325 56.5551 121.166C73.1019 120.234 74.2688 119.525 77.2174 117.066C80.0077 114.74 78.8728 103.964 72.6238 103.858Z" fill="#304156"/>
<path fill-rule="evenodd" clip-rule="evenodd" d="M47.5566 66.0091C47.5566 66.4975 47.1607 66.8934 46.6723 66.8934C46.183 66.8934 45.7871 66.4975 45.7871 66.0091C45.7871 65.5207 46.183 65.1248 46.6723 65.1248C47.1607 65.1248 47.5566 65.5207 47.5566 66.0091Z" fill="white"/>
<path fill-rule="evenodd" clip-rule="evenodd" d="M50.3767 66.0091C50.3767 66.4975 49.9808 66.8934 49.4924 66.8934C49.0031 66.8934 48.6072 66.4975 48.6072 66.0091C48.6072 65.5207 49.0031 65.1248 49.4924 65.1248C49.9808 65.1248 50.3767 65.5207 50.3767 66.0091Z" fill="white"/>
<path d="M15.9925 121.568H79.1223" stroke="#2EB7FF" stroke-width="2" stroke-linecap="round"/>
<path fill-rule="evenodd" clip-rule="evenodd" d="M26.9503 23.1681L33.2278 19.1174L43.3424 32.1374L63.525 6.20728L71.68 10.774L43.3424 40.129L26.9503 23.1681Z" fill="white"/>
</svg>
