<svg width="94" height="123" viewBox="0 0 94 123" fill="none" xmlns="http://www.w3.org/2000/svg">
<mask id="mask0_17_2488" style="mask-type:alpha" maskUnits="userSpaceOnUse" x="17" y="37" width="55" height="84">
<path fill-rule="evenodd" clip-rule="evenodd" d="M24.6923 39.2902C18.4009 42.17 19.5432 46.7276 20.0703 49.4371C21.8258 58.4862 28.1181 83.561 28.1181 83.561C27.0932 85.1452 19.776 108.327 18.1463 114.087C16.5158 119.844 18.1463 120.833 18.1463 120.833H34.1162C34.4086 118.943 30.4594 116.677 30.4594 116.677C30.1651 115.525 41.141 86.7284 41.7249 84.8565C42.3107 82.9856 40.2628 76.362 40.8363 75.7857C41.4117 75.2103 43.9195 83.2733 43.7747 84.7136C43.629 86.153 43.4804 109.334 43.7747 115.381C44.0662 121.429 45.0911 120.815 45.0911 120.815H61.4802C61.6259 118.477 57.6749 117.11 57.6749 117.11C57.6749 115.814 56.9434 83.2733 57.2348 81.848C57.5292 80.4247 47.5791 60.0921 47.7258 58.9404C47.8715 57.7887 49.7785 61.3915 51.8273 64.1265C53.8762 66.8634 62.6546 64.1265 62.6546 64.1265C62.6546 64.1265 73.0589 57.7764 71.6668 54.9894C71.1956 54.0487 66.7306 54.3203 62.9187 54.5919C60.6938 54.749 58.6903 54.908 57.832 54.8247C57.832 54.8247 52.5494 45.0053 47.7854 40.1665C45.7971 38.147 41.1798 37.2139 36.3439 37.2139C32.0777 37.2148 27.6412 37.9416 24.6923 39.2902Z" fill="white"/>
</mask>
<g mask="url(#mask0_17_2488)">
<path fill-rule="evenodd" clip-rule="evenodd" d="M12.6899 125.565H67.3858V32.9003H12.6899V125.565Z" fill="#304156"/>
</g>
<mask id="mask1_17_2488" style="mask-type:alpha" maskUnits="userSpaceOnUse" x="28" y="20" width="14" height="16">
<path fill-rule="evenodd" clip-rule="evenodd" d="M31.649 24.6226C31.649 24.6226 28.8961 24.229 28.7361 26.4397C28.5752 28.6503 31.1475 29.6696 31.1475 29.6696C31.1475 29.6696 30.8257 34.9787 34.6045 35.1367C38.3824 35.2938 39.9098 29.8835 39.9098 29.8835H41.3814C41.3814 29.8835 41.3814 22.7176 38.1411 20.9602C37.4209 20.5694 36.6439 20.3716 35.8868 20.3716C33.8834 20.3716 32.0134 21.758 31.649 24.6226Z" fill="white"/>
</mask>
<g mask="url(#mask1_17_2488)">
<path fill-rule="evenodd" clip-rule="evenodd" d="M23.9972 39.8713H46.1146V15.6398H23.9972V39.8713Z" fill="#304156"/>
</g>
<mask id="mask2_17_2488" style="mask-type:alpha" maskUnits="userSpaceOnUse" x="71" y="53" width="8" height="16">
<path fill-rule="evenodd" clip-rule="evenodd" d="M74.4625 53.798L71.967 53.6191L71.5061 57.2522C71.5061 57.2522 75.0048 60.7764 74.5354 60.7017C74.0651 60.626 70.9847 61.9868 72.8518 63.4934C72.9805 63.5985 73.4442 63.4934 73.9316 63.3884C74.4919 63.2682 75.0843 63.148 75.2367 63.3439C75.5225 63.7121 73.6723 63.7669 73.5597 65.0928C73.4651 66.2313 75.3729 65.8272 75.3729 65.8272C75.4515 66.0183 75.4789 66.007 75.3985 66.359C75.3502 66.5691 74.5373 66.8843 74.3688 67.0697C73.9714 67.5108 74.2827 68.4524 75.0919 68.6256C76.3865 68.9038 77.5619 65.8612 78.1287 64.5751C78.6965 63.29 77.9442 61.8174 77.6035 59.5944C77.2638 57.3714 72.6815 56.9162 73.0449 56.3456C73.4054 55.773 76.201 56.2907 76.8237 54.4803C77.1 53.674 76.6628 53.4497 76.0922 53.4497C75.3814 53.4497 74.4625 53.798 74.4625 53.798Z" fill="white"/>
</mask>
<g mask="url(#mask2_17_2488)">
<path fill-rule="evenodd" clip-rule="evenodd" d="M69.1143 46.4426L86.8349 51.5615L80.0666 74.9915L62.3459 69.8717L69.1143 46.4426Z" fill="#304156"/>
</g>
<path fill-rule="evenodd" clip-rule="evenodd" d="M51.0542 18.0482L72.3379 14.3441C72.3379 14.3441 74.3271 49.6112 75.793 69.9495L63.1383 72.1526C63.1383 72.1526 55.1699 36.5874 51.0542 18.0482Z" fill="#FF8D00"/>
<mask id="mask3_17_2488" style="mask-type:alpha" maskUnits="userSpaceOnUse" x="72" y="59" width="7" height="10">
<path fill-rule="evenodd" clip-rule="evenodd" d="M74.5358 60.7017C73.7645 60.9165 70.9282 62.0578 72.8531 63.4935C73.1579 63.7225 73.703 63.5796 74.1998 63.4357C74.6701 63.3004 75.0979 63.1651 75.238 63.3439C75.5247 63.7121 73.6736 63.767 73.562 65.0928C73.4654 66.2313 75.3742 65.8272 75.3742 65.8272C75.4528 66.0184 75.4802 66.008 75.3988 66.3591C75.3525 66.5691 74.5386 66.8843 74.3702 67.0698C73.9727 67.5108 74.284 68.4524 75.0932 68.6256C76.3878 68.9038 77.5622 65.8622 78.13 64.5752C78.6969 63.2891 77.9446 61.8175 77.6048 59.5945L76.1247 59.5519C76.1247 59.5519 74.9919 60.5739 74.5358 60.7017Z" fill="white"/>
</mask>
<g mask="url(#mask3_17_2488)">
<path fill-rule="evenodd" clip-rule="evenodd" d="M70.1254 52.5081L85.2965 56.8916L80.0678 74.9917L64.8967 70.6082L70.1254 52.5081Z" fill="#304156"/>
</g>
<path d="M6.60486 121.527H73.4719" stroke="#FF8D00" stroke-width="2" stroke-linecap="round"/>
<mask id="mask4_17_2488" style="mask-type:alpha" maskUnits="userSpaceOnUse" x="35" y="25" width="3" height="3">
<path fill-rule="evenodd" clip-rule="evenodd" d="M35.8497 26.2379C35.8497 26.7631 36.2832 27.1899 36.8188 27.1899C37.3535 27.1899 37.7869 26.7631 37.7869 26.2379C37.7869 25.7117 37.3535 25.2849 36.8188 25.2849C36.2832 25.2849 35.8497 25.7117 35.8497 26.2379Z" fill="white"/>
</mask>
<g mask="url(#mask4_17_2488)">
<path fill-rule="evenodd" clip-rule="evenodd" d="M31.1182 31.9217H42.519V20.5531H31.1182V31.9217Z" fill="white"/>
</g>
<path fill-rule="evenodd" clip-rule="evenodd" d="M29.5786 1.42072L29.2862 10.2512C29.2616 10.9941 29.9562 11.7048 30.7057 11.6708C31.4959 11.6348 32.0987 11.0471 32.1252 10.2512L32.4177 1.42072C32.4423 0.677826 31.7476 -0.0328915 30.9981 0.00117749C30.2079 0.0361929 29.6051 0.624829 29.5786 1.42072Z" fill="#FF8D00"/>
<path fill-rule="evenodd" clip-rule="evenodd" d="M16.7137 5.16787C17.7954 7.45901 18.8762 9.7511 19.9579 12.0422C20.2758 12.716 21.2951 12.9413 21.8998 12.5514C22.5925 12.1047 22.7487 11.3296 22.4089 10.6094C21.3282 8.31831 20.2465 6.02622 19.1658 3.73508C18.8478 3.06127 17.8286 2.83604 17.2229 3.22594C16.5301 3.67262 16.374 4.44769 16.7137 5.16787Z" fill="#FF8D00"/>
<path fill-rule="evenodd" clip-rule="evenodd" d="M7.12843 13.4494L11.7874 18.6961C12.2823 19.2535 13.2978 19.2393 13.7955 18.6961C14.3407 18.1027 14.3227 17.2831 13.7955 16.6888L9.13661 11.4422C8.64166 10.8857 7.62622 10.8999 7.12843 11.4422C6.58333 12.0365 6.60131 12.8561 7.12843 13.4494Z" fill="#FF8D00"/>
<path fill-rule="evenodd" clip-rule="evenodd" d="M1.02613 27.5672C3.03241 27.8795 5.0387 28.1918 7.04404 28.5031C7.32889 28.5476 7.61375 28.5921 7.8986 28.6366C8.62919 28.7501 9.46199 28.4511 9.64464 27.6448C9.79984 26.9662 9.43833 26.0208 8.6538 25.8987C6.64751 25.5864 4.64123 25.2741 2.63589 24.9628C2.35009 24.9183 2.06618 24.8738 1.78132 24.8294C1.04979 24.7158 0.217935 25.0148 0.0352874 25.8211C-0.119916 26.4997 0.241594 27.4451 1.02613 27.5672Z" fill="#FF8D00"/>
<path fill-rule="evenodd" clip-rule="evenodd" d="M4.43179 60.543C8.47748 65.9183 15.1654 65.7896 17.1471 67.0227C19.1288 68.2558 22.4231 70.0397 21.7445 68.2729C21.0669 66.507 18.4777 64.9568 18.9802 64.2736C19.4837 63.5903 23.5899 67.6208 23.5956 66.3584C23.6013 65.094 19.6332 62.7887 20.0638 61.9237C20.4915 61.0569 23.6817 64.3105 24.2155 63.224C24.7502 62.1386 21.1502 60.648 20.7433 59.625C20.3363 58.6011 23.1707 58.9966 23.0145 56.8191C22.8593 54.6415 20.025 58.9086 17.7594 57.7739C15.4853 56.6345 13.144 54.6084 13.144 54.6084C13.144 54.6084 22.0937 52.5888 29.9523 52.3532L29.3788 37.7887C29.3788 37.7887 17.8739 39.3701 9.08031 45.8375C1.02489 51.7627 1.42236 56.5456 4.43179 60.543Z" fill="#304156"/>
<path fill-rule="evenodd" clip-rule="evenodd" d="M91.9947 109.265C93.8221 109.265 93.825 106.426 91.9947 106.426C90.1682 106.426 90.1644 109.265 91.9947 109.265Z" fill="#FF8D00"/>
<path fill-rule="evenodd" clip-rule="evenodd" d="M84.1863 106.922C86.0138 106.922 86.0166 104.083 84.1863 104.083C82.3599 104.083 82.3561 106.922 84.1863 106.922Z" fill="#FF8D00"/>
<path fill-rule="evenodd" clip-rule="evenodd" d="M78.4606 101.197C80.2871 101.197 80.2909 98.3577 78.4606 98.3577C76.6342 98.3577 76.6304 101.197 78.4606 101.197Z" fill="#FF8D00"/>
<path fill-rule="evenodd" clip-rule="evenodd" d="M79.3143 85.9837C79.3143 90.2963 75.8185 93.7922 71.5068 93.7922C67.1943 93.7922 63.6993 90.2963 63.6993 85.9837C63.6993 81.6721 67.1943 78.1763 71.5068 78.1763C75.8185 78.1763 79.3143 81.6721 79.3143 85.9837Z" fill="#FF8D00"/>
</svg>
